<svg width="32" height="36" viewBox="0 0 32 36" fill="none" xmlns="http://www.w3.org/2000/svg">
<path fill-rule="evenodd" clip-rule="evenodd" d="M18.3269 23.6538C13.1064 26.3753 6.52489 25.0949 2.74421 20.3034C-1.5328 14.8828 -0.60575 7.02132 4.81483 2.74431C10.2354 -1.5327 18.0969 -0.60565 22.3739 4.81493C26.1546 9.60655 25.8689 16.3055 22.0075 20.7498L30.8557 31.9638C31.6577 32.9801 31.4838 34.4542 30.4675 35.2561C29.4511 36.058 27.9771 35.8842 27.1752 34.8679L18.3269 23.6538ZM17.8675 19.3194C14.1414 22.2457 8.74768 21.6049 5.81136 17.8835C2.87091 14.1569 3.50826 8.75213 7.23491 5.81168C10.9616 2.87124 16.3663 3.50858 19.3068 7.23523C22.2431 10.9567 21.6116 16.3515 17.8989 19.2947C17.8936 19.2988 17.8884 19.3029 17.8831 19.307C17.8779 19.3111 17.8727 19.3153 17.8675 19.3194Z" fill="#ADADAD"/>
</svg>
