<?xml version="1.0" encoding="utf-8"?>
<!-- Generator: Adobe Illustrator 28.1.0, SVG Export Plug-In . SVG Version: 6.00 Build 0)  -->
<svg version="1.1" id="Layer_1" xmlns="http://www.w3.org/2000/svg" xmlns:xlink="http://www.w3.org/1999/xlink" x="0px" y="0px"
	 viewBox="0 0 485.38 152.51" style="enable-background:new 0 0 485.38 152.51;" xml:space="preserve">
<style type="text/css">
	.st0{fill:#002E6E;}
	.st1{fill:#ED1C24;}
	.st2{fill:#92BCE4;}
</style>
<g>
	<g>
		<polygon class="st1" points="120.82,73.46 168.42,121.88 193.79,49.57 		"/>
	</g>
	<g>
		<path class="st2" d="M100.62,81.17v12.68c-0.96-0.33-1.69-0.49-2.22-0.49c-1,0-1.86,0.37-2.57,1.11
			c-0.72,0.74-1.08,1.63-1.08,2.67c0,0.89,0.39,2.02,1.17,3.39l1.01,1.76c1.82,3.17,2.74,6.24,2.74,9.19
			c0,4.32-1.54,7.98-4.61,10.98c-3.07,3-6.83,4.5-11.26,4.5c-2.13,0-4.24-0.49-6.32-1.47v-12.87c1.26,0.8,2.38,1.21,3.36,1.21
			c1.15,0,2.11-0.33,2.88-0.99c0.77-0.66,1.16-1.49,1.16-2.49c0-0.65-0.62-2.07-1.86-4.27c-1.98-3.48-2.97-6.95-2.97-10.43
			c0-4.19,1.49-7.8,4.48-10.84c2.99-3.03,6.55-4.55,10.7-4.55C97.07,80.25,98.86,80.56,100.62,81.17z"/>
		<path class="st2" d="M123.3,81.36v12.45h5.48v12.87h-5.48c0,2.59,0.41,4.37,1.22,5.34s2.31,1.47,4.48,1.47v12.81
			c-0.63,0.02-1.1,0.03-1.4,0.03c-2.76,0-5.36-0.64-7.8-1.92c-2.44-1.28-4.41-3.02-5.88-5.21c-1.87-2.8-2.8-6.52-2.8-11.15V81.36
			H123.3z"/>
		<path class="st2" d="M202.54,93.03v13.03c-0.85-0.48-1.62-0.72-2.31-0.72c-2.22,0-3.32,1.69-3.32,5.08v15.41h-12.19v-17.76
			c0-4.69,1.28-8.43,3.85-11.23c2.56-2.79,5.99-4.19,10.27-4.19C199.78,92.67,201.02,92.79,202.54,93.03z"/>
		<path class="st2" d="M232.86,81.36v44.48h-13.23V81.36H232.86z"/>
		<path class="st2" d="M269.81,125.84h-12.19V107.5c0-1.87-0.77-2.8-2.31-2.8c-1.52,0-2.28,0.93-2.28,2.8v18.35h-12.19v-18.12
			c0-4.24,1.4-7.8,4.2-10.71c2.8-2.9,6.23-4.35,10.3-4.35c4.65,0,8.38,1.68,11.18,5.05c2.19,2.63,3.29,6.29,3.29,10.98V125.84z"/>
		<path class="st2" d="M301.33,93.35l-15.19,33.76l-14.99-33.76h11.63l3.45,8.77l3.78-8.77H301.33z"/>
		<path class="st2" d="M334.57,111.57h-18.48c-0.28-0.93-0.42-1.79-0.42-2.57c0-1.09,0.19-2.15,0.59-3.19h6.19
			c-0.43-2.41-1.79-3.62-4.07-3.62c-1.52,0-2.76,0.65-3.71,1.94c-0.96,1.29-1.43,2.95-1.43,4.97c0,2.11,0.46,3.81,1.39,5.12
			c0.92,1.3,2.13,1.96,3.63,1.96c1.22,0,2.39-0.61,3.52-1.82l6.94,8.34c-3.24,2.54-6.83,3.81-10.79,3.81
			c-4.82,0-8.88-1.62-12.16-4.86c-3.28-3.24-4.92-7.25-4.92-12.02c0-4.76,1.66-8.78,4.97-12.06c3.31-3.28,7.38-4.92,12.2-4.92
			c4.71,0,8.67,1.6,11.88,4.81c3.2,3.2,4.81,7.15,4.81,11.85C334.7,109.77,334.65,110.53,334.57,111.57z"/>
		<path class="st2" d="M368.59,125.84H356.4V107.5c0-1.87-0.77-2.8-2.31-2.8c-1.52,0-2.28,0.93-2.28,2.8v18.35h-12.19v-18.12
			c0-4.24,1.4-7.8,4.2-10.71c2.8-2.9,6.23-4.35,10.3-4.35c4.65,0,8.38,1.68,11.18,5.05c2.19,2.63,3.29,6.29,3.29,10.98V125.84z"/>
		<path class="st2" d="M386.54,81.36v12.45h5.48v12.87h-5.48c0,2.59,0.41,4.37,1.22,5.34s2.31,1.47,4.48,1.47v12.81
			c-0.63,0.02-1.1,0.03-1.4,0.03c-2.76,0-5.36-0.64-7.8-1.92c-2.44-1.28-4.41-3.02-5.88-5.21c-1.87-2.8-2.8-6.52-2.8-11.15V81.36
			H386.54z"/>
		<path class="st2" d="M413.43,92.67c4.6,0,8.55,1.66,11.85,4.97c3.29,3.31,4.94,7.28,4.94,11.91c0,4.69-1.67,8.69-5,11.99
			c-3.33,3.3-7.36,4.95-12.07,4.95c-4.71,0-8.74-1.66-12.09-4.97c-3.35-3.31-5.02-7.3-5.02-11.98c0-4.76,1.67-8.76,5.02-12.01
			C404.39,94.29,408.52,92.67,413.43,92.67z M413.1,104.7c-1.3,0-2.41,0.47-3.32,1.42c-0.91,0.95-1.37,2.1-1.37,3.47
			c0,1.35,0.46,2.5,1.39,3.45c0.92,0.96,2.03,1.43,3.31,1.43c1.3,0,2.42-0.48,3.34-1.43c0.92-0.96,1.39-2.11,1.39-3.45
			c0-1.37-0.46-2.53-1.37-3.47C415.55,105.17,414.43,104.7,413.1,104.7z"/>
		<path class="st2" d="M453.12,93.03v13.03c-0.85-0.48-1.62-0.72-2.31-0.72c-2.22,0-3.32,1.69-3.32,5.08v15.41h-12.19v-17.76
			c0-4.69,1.28-8.43,3.85-11.23c2.56-2.79,5.99-4.19,10.27-4.19C450.36,92.67,451.6,92.79,453.12,93.03z"/>
		<path class="st2" d="M460.91,140.09v-10.59c1.65,0.69,3.1,1.04,4.33,1.04c3.95,0,6.52-2.23,7.69-6.68
			c-2.13,1.26-4.21,1.89-6.26,1.89c-3.02,0-5.51-1.12-7.46-3.37c-1.96-2.25-2.93-5.11-2.93-8.59V93.35h12.19v17.47
			c0,1.93,0.8,2.9,2.41,2.9c1.54,0,2.31-1.06,2.31-3.19V93.35h12.19v29c0,5.41-1.52,9.78-4.56,13.1c-3.63,3.95-8.02,5.93-13.17,5.93
			C465.39,141.39,463.15,140.95,460.91,140.09z"/>
	</g>
	<path class="st0" d="M187.8,93.45c2.95-2.5,6.64-3.78,11.02-3.78c0.4,0,0.84,0.02,1.3,0.06l22.95-65.4l-78.27,25.63L79.32,0
		l0.15,66.52L0,107.5h2.92l90.22-31.7l113.95-37.31L187.8,93.45z"/>
	<g>
		<path class="st0" d="M115.16,135.47l-2.76,5.74c-1.03,2.15-1.88,4.04-2.54,5.64h-0.37c-0.23-0.55-0.89-1.97-1.97-4.24l-3.32-6.88
			v7.17c0,1.67,0.07,2.62,0.2,2.84c0.13,0.23,0.55,0.34,1.25,0.34h0.34v0.58c-0.86-0.04-1.56-0.06-2.1-0.06
			c-0.39,0-1.17,0.02-2.33,0.06v-0.58h0.6c0.41,0,0.68-0.06,0.82-0.18c0.14-0.12,0.22-0.33,0.25-0.64c0.08-0.87,0.12-1.8,0.12-2.8
			v-5.25c0-1.27-0.03-2.11-0.08-2.51c-0.02-0.21-0.12-0.37-0.27-0.48s-0.47-0.17-0.94-0.17h-0.49v-0.58
			c1.08,0.04,1.75,0.06,2.03,0.06c0.35,0,0.85-0.02,1.5-0.06c0.75,1.66,1.61,3.5,2.59,5.5l2.44,5.02l2.26-4.65
			c0.79-1.63,1.7-3.59,2.71-5.87c0.77,0.04,1.32,0.06,1.63,0.06c0.36,0,1.02-0.02,1.98-0.06v0.58h-0.61c-0.55,0-0.88,0.09-1,0.28
			s-0.18,0.87-0.18,2.04v6.78c0,1.51,0.06,2.37,0.19,2.6s0.48,0.33,1.07,0.33h0.53v0.58c-0.86-0.04-1.68-0.06-2.47-0.06
			c-0.87,0-1.77,0.02-2.72,0.06v-0.58h0.61c0.49,0,0.78-0.11,0.89-0.32s0.15-1.13,0.15-2.75V135.47z"/>
		<path class="st0" d="M136.13,142.22h-5.37l-0.63,1.49c-0.41,0.99-0.62,1.6-0.62,1.82c0,0.14,0.04,0.24,0.12,0.31
			c0.08,0.06,0.27,0.11,0.59,0.15l0.89,0.1v0.58c-0.59-0.04-1.26-0.06-2-0.06c-0.89,0-1.67,0.02-2.35,0.06v-0.58l0.28-0.01
			c0.43-0.01,0.71-0.06,0.84-0.13c0.13-0.08,0.26-0.27,0.4-0.57c0.44-0.89,0.89-1.85,1.35-2.88l2.55-5.78
			c0.68-1.53,1.14-2.65,1.39-3.34h0.63l4.69,10.92c0.32,0.74,0.53,1.19,0.63,1.34c0.11,0.15,0.23,0.26,0.36,0.32
			c0.14,0.06,0.44,0.11,0.92,0.13v0.58c-0.8-0.04-1.57-0.06-2.3-0.06c-0.68,0-1.59,0.02-2.72,0.06v-0.58l0.92-0.06
			c0.33-0.02,0.52-0.06,0.58-0.1c0.09-0.07,0.14-0.15,0.14-0.26c0-0.11-0.09-0.4-0.28-0.87L136.13,142.22z M131.11,141.45h4.67
			l-2.33-5.57L131.11,141.45z"/>
		<path class="st0" d="M151.55,135.56v6.41c0,1.46,0.03,2.48,0.08,3.05c0.04,0.44,0.12,0.71,0.22,0.8c0.1,0.1,0.4,0.17,0.89,0.21
			l0.6,0.05v0.58c-0.68-0.04-1.29-0.06-1.83-0.06c-0.38,0-1.25,0.02-2.6,0.06v-0.58h0.67c0.4,0,0.66-0.06,0.79-0.17
			c0.12-0.11,0.2-0.33,0.23-0.66c0.07-0.68,0.1-1.6,0.1-2.77v-4.61c0-0.87-0.01-1.72-0.03-2.57c-0.01-0.36-0.06-0.6-0.14-0.74
			c-0.08-0.13-0.21-0.25-0.37-0.36c-0.16-0.1-0.39-0.16-0.68-0.16h-0.58v-0.58c0.79,0.04,1.39,0.06,1.8,0.06
			c0.45,0,0.93-0.02,1.47-0.06c0.61,0.75,1.19,1.48,1.73,2.18c0.54,0.71,1.1,1.42,1.68,2.14l3.17,3.9c1.14,1.4,1.97,2.37,2.48,2.91
			v-5.96c0-2.49-0.04-3.85-0.13-4.09s-0.45-0.38-1.07-0.44l-0.7-0.06v-0.58c1,0.04,1.77,0.06,2.32,0.06c0.58,0,1.32-0.02,2.23-0.06
			v0.58h-0.71c-0.58,0-0.91,0.19-0.99,0.58c-0.06,0.25-0.08,1.61-0.08,4.06v4.18c0,1.13,0.05,2.47,0.15,4.04
			c-0.84-0.13-1.33-0.22-1.47-0.28c-0.14-0.06-0.27-0.16-0.39-0.29c-0.69-0.76-1.41-1.61-2.16-2.53L151.55,135.56z"/>
		<path class="st0" d="M181.32,142.22h-5.37l-0.63,1.49c-0.41,0.99-0.62,1.6-0.62,1.82c0,0.14,0.04,0.24,0.12,0.31
			c0.08,0.06,0.27,0.11,0.59,0.15l0.89,0.1v0.58c-0.59-0.04-1.26-0.06-2-0.06c-0.89,0-1.67,0.02-2.35,0.06v-0.58l0.28-0.01
			c0.43-0.01,0.71-0.06,0.84-0.13c0.13-0.08,0.26-0.27,0.4-0.57c0.44-0.89,0.89-1.85,1.35-2.88l2.55-5.78
			c0.68-1.53,1.14-2.65,1.39-3.34h0.63l4.69,10.92c0.32,0.74,0.53,1.19,0.63,1.34c0.11,0.15,0.23,0.26,0.36,0.32
			c0.14,0.06,0.44,0.11,0.92,0.13v0.58c-0.8-0.04-1.57-0.06-2.3-0.06c-0.68,0-1.59,0.02-2.72,0.06v-0.58l0.92-0.06
			c0.33-0.02,0.52-0.06,0.58-0.1c0.09-0.07,0.14-0.15,0.14-0.26c0-0.11-0.09-0.4-0.28-0.87L181.32,142.22z M176.3,141.45h4.67
			l-2.33-5.57L176.3,141.45z"/>
		<path class="st0" d="M206.95,142.28c-0.09,0.52-0.14,1.05-0.14,1.59c0,0.57,0.05,1.21,0.14,1.92c-0.82,0.32-1.75,0.58-2.79,0.77
			c-1.04,0.19-2.03,0.29-2.97,0.29c-1.46,0-2.74-0.29-3.84-0.86c-1.1-0.57-1.95-1.37-2.55-2.38c-0.59-1.02-0.89-2.17-0.89-3.46
			c0-1.34,0.32-2.52,0.96-3.57c0.64-1.04,1.52-1.85,2.66-2.43c1.14-0.58,2.58-0.87,4.32-0.87c0.71,0,1.37,0.05,1.97,0.14
			c0.6,0.09,1.38,0.28,2.35,0.56l0.79,0.21c-0.16,0.66-0.29,1.57-0.39,2.75h-0.58v-0.61c0-0.61-0.05-0.96-0.15-1.07
			c-0.19-0.2-0.68-0.44-1.48-0.74c-0.8-0.29-1.71-0.44-2.74-0.44c-1.82,0-3.21,0.49-4.17,1.47c-1.05,1.06-1.58,2.47-1.58,4.22
			c0,1.68,0.47,3.1,1.42,4.25c1.11,1.36,2.63,2.04,4.55,2.04c1,0,2.09-0.22,3.26-0.66c0.04-0.52,0.06-1.08,0.06-1.66
			c0-0.76-0.01-1.2-0.04-1.32c-0.02-0.11-0.07-0.19-0.13-0.22s-0.39-0.08-0.97-0.13l-1.09-0.09v-0.58c1.42,0.06,2.47,0.09,3.15,0.09
			c0.59,0,1.1-0.03,1.53-0.09v0.46L206.95,142.28z"/>
		<path class="st0" d="M219.7,140.36v2.28l0.01,1.31c0,0.82,0.01,1.42,0.03,1.79c0.9,0.07,1.87,0.1,2.91,0.1
			c0.69,0,1.28-0.03,1.75-0.09c0.3-0.04,0.63-0.12,0.97-0.24c0.15-0.54,0.31-1.22,0.47-2.04h0.61c-0.17,1.36-0.25,2.26-0.25,2.72
			l0.02,0.42c-0.71,0.06-1.41,0.09-2.1,0.09l-1.46-0.03c-1.61-0.04-2.79-0.06-3.54-0.06c-0.72,0-1.69,0.02-2.88,0.06v-0.58h0.29
			c0.54,0,0.88-0.05,1.02-0.16c0.14-0.1,0.23-0.35,0.28-0.74c0.05-0.39,0.07-1.25,0.07-2.58v-5.09c0-0.83-0.02-1.52-0.06-2.05
			c-0.04-0.53-0.08-0.85-0.13-0.95s-0.11-0.18-0.2-0.24c-0.09-0.06-0.35-0.1-0.8-0.15l-0.71-0.07v-0.58h1l0.98,0.03
			c0.55,0.02,0.97,0.03,1.25,0.03l3.56-0.05l1.69-0.01c0.58-0.01,1.16,0.02,1.74,0.06c-0.24,0.73-0.37,1.69-0.39,2.87h-0.63
			c0-0.68-0.03-1.25-0.1-1.7c-0.73-0.27-1.63-0.41-2.69-0.41c-0.85,0-1.73,0.04-2.66,0.11c0.01,0.58,0,1.16-0.02,1.74l-0.02,1.43
			v1.88c0.61,0.04,1.15,0.06,1.62,0.06c1.47,0,2.31-0.05,2.5-0.15c0.2-0.1,0.29-0.42,0.29-0.95v-0.6h0.63
			c-0.04,0.93-0.06,1.68-0.06,2.24c0,0.59,0.02,1.28,0.06,2.08h-0.63v-0.54c0-0.59-0.12-0.96-0.35-1.09
			c-0.23-0.13-1.05-0.2-2.45-0.2C220.8,140.3,220.26,140.32,219.7,140.36z"/>
		<path class="st0" d="M248.45,135.47l-2.76,5.74c-1.03,2.15-1.88,4.04-2.54,5.64h-0.37c-0.23-0.55-0.88-1.97-1.97-4.24l-3.32-6.88
			v7.17c0,1.67,0.07,2.62,0.2,2.84c0.13,0.23,0.55,0.34,1.24,0.34h0.35v0.58c-0.86-0.04-1.56-0.06-2.1-0.06
			c-0.39,0-1.17,0.02-2.33,0.06v-0.58h0.6c0.41,0,0.68-0.06,0.82-0.18c0.14-0.12,0.22-0.33,0.25-0.64c0.08-0.87,0.12-1.8,0.12-2.8
			v-5.25c0-1.27-0.03-2.11-0.08-2.51c-0.02-0.21-0.12-0.37-0.27-0.48c-0.16-0.11-0.47-0.17-0.94-0.17h-0.49v-0.58
			c1.08,0.04,1.75,0.06,2.03,0.06c0.35,0,0.85-0.02,1.5-0.06c0.75,1.66,1.61,3.5,2.59,5.5l2.44,5.02l2.25-4.65
			c0.79-1.63,1.7-3.59,2.71-5.87c0.77,0.04,1.32,0.06,1.63,0.06c0.37,0,1.02-0.02,1.98-0.06v0.58h-0.61c-0.55,0-0.88,0.09-1,0.28
			s-0.18,0.87-0.18,2.04v6.78c0,1.51,0.06,2.37,0.19,2.6c0.13,0.22,0.48,0.33,1.07,0.33h0.53v0.58c-0.86-0.04-1.68-0.06-2.47-0.06
			c-0.87,0-1.77,0.02-2.72,0.06v-0.58h0.61c0.49,0,0.78-0.11,0.89-0.32c0.1-0.21,0.15-1.13,0.15-2.75V135.47z"/>
		<path class="st0" d="M263.9,140.36v2.28l0.01,1.31c0,0.82,0.01,1.42,0.03,1.79c0.9,0.07,1.87,0.1,2.91,0.1
			c0.69,0,1.28-0.03,1.75-0.09c0.3-0.04,0.63-0.12,0.97-0.24c0.15-0.54,0.31-1.22,0.47-2.04h0.61c-0.17,1.36-0.25,2.26-0.25,2.72
			l0.02,0.42c-0.71,0.06-1.41,0.09-2.1,0.09l-1.46-0.03c-1.61-0.04-2.79-0.06-3.54-0.06c-0.72,0-1.69,0.02-2.88,0.06v-0.58h0.29
			c0.54,0,0.88-0.05,1.02-0.16c0.14-0.1,0.23-0.35,0.28-0.74c0.05-0.39,0.07-1.25,0.07-2.58v-5.09c0-0.83-0.02-1.52-0.06-2.05
			s-0.08-0.85-0.13-0.95c-0.05-0.1-0.11-0.18-0.2-0.24c-0.09-0.06-0.35-0.1-0.8-0.15l-0.71-0.07v-0.58h1l0.98,0.03
			c0.55,0.02,0.97,0.03,1.25,0.03l3.56-0.05l1.69-0.01c0.58-0.01,1.16,0.02,1.74,0.06c-0.24,0.73-0.37,1.69-0.39,2.87h-0.63
			c0-0.68-0.03-1.25-0.1-1.7c-0.73-0.27-1.63-0.41-2.69-0.41c-0.85,0-1.73,0.04-2.66,0.11c0.01,0.58,0,1.16-0.02,1.74l-0.02,1.43
			v1.88c0.61,0.04,1.15,0.06,1.62,0.06c1.47,0,2.31-0.05,2.5-0.15c0.2-0.1,0.29-0.42,0.29-0.95v-0.6h0.63
			c-0.04,0.93-0.06,1.68-0.06,2.24c0,0.59,0.02,1.28,0.06,2.08h-0.63v-0.54c0-0.59-0.12-0.96-0.35-1.09
			c-0.23-0.13-1.05-0.2-2.45-0.2C264.99,140.3,264.46,140.32,263.9,140.36z"/>
		<path class="st0" d="M281.67,135.56v6.41c0,1.46,0.03,2.48,0.08,3.05c0.04,0.44,0.12,0.71,0.22,0.8c0.1,0.1,0.4,0.17,0.89,0.21
			l0.6,0.05v0.58c-0.68-0.04-1.29-0.06-1.83-0.06c-0.38,0-1.25,0.02-2.6,0.06v-0.58h0.67c0.4,0,0.67-0.06,0.79-0.17
			c0.12-0.11,0.2-0.33,0.23-0.66c0.07-0.68,0.1-1.6,0.1-2.77v-4.61c0-0.87-0.01-1.72-0.03-2.57c-0.01-0.36-0.06-0.6-0.14-0.74
			c-0.08-0.13-0.21-0.25-0.37-0.36c-0.16-0.1-0.39-0.16-0.68-0.16h-0.58v-0.58c0.79,0.04,1.39,0.06,1.8,0.06
			c0.45,0,0.93-0.02,1.47-0.06c0.61,0.75,1.19,1.48,1.73,2.18c0.54,0.71,1.1,1.42,1.68,2.14l3.17,3.9c1.14,1.4,1.97,2.37,2.48,2.91
			v-5.96c0-2.49-0.04-3.85-0.13-4.09s-0.45-0.38-1.07-0.44l-0.7-0.06v-0.58c1,0.04,1.77,0.06,2.32,0.06c0.58,0,1.32-0.02,2.23-0.06
			v0.58h-0.71c-0.57,0-0.91,0.19-0.99,0.58c-0.06,0.25-0.08,1.61-0.08,4.06v4.18c0,1.13,0.05,2.47,0.15,4.04
			c-0.84-0.13-1.33-0.22-1.47-0.28c-0.14-0.06-0.27-0.16-0.39-0.29c-0.69-0.76-1.41-1.61-2.16-2.53L281.67,135.56z"/>
		<path class="st0" d="M308.51,134.31c-0.07,0.93-0.1,1.9-0.1,2.93v5.29c0,1.97,0.05,3.05,0.15,3.25c0.1,0.2,0.45,0.3,1.06,0.3h0.7
			v0.58c-1.09-0.04-2.02-0.06-2.78-0.06c-0.77,0-1.69,0.02-2.76,0.06v-0.58h0.78c0.41,0,0.67-0.05,0.8-0.16
			c0.12-0.11,0.2-0.32,0.23-0.64c0.06-0.72,0.09-1.66,0.09-2.8v-5.3c0-1.04-0.02-2-0.06-2.88h-0.94c-1.52,0-2.36,0.04-2.52,0.11
			c-0.15,0.07-0.26,0.35-0.31,0.83l-0.13,1.24h-0.58l0.02-1.1c0-0.45-0.04-1.09-0.11-1.92c3.34,0.04,5.3,0.06,5.89,0.06l5.13-0.06
			c-0.12,1.04-0.19,2.05-0.2,3.02h-0.58l-0.09-1.22c-0.04-0.42-0.09-0.67-0.16-0.75c-0.07-0.08-0.22-0.13-0.45-0.14
			c-0.68-0.05-1.45-0.07-2.32-0.07H308.51z"/>
		<path class="st0" d="M341.63,134.09c-0.17,0.64-0.27,1.5-0.28,2.56h-0.64v-0.74c0-0.48-0.06-0.81-0.19-0.98
			c-0.13-0.17-0.47-0.36-1.02-0.55c-0.55-0.19-1.12-0.29-1.73-0.29c-0.99,0-1.77,0.25-2.33,0.75c-0.57,0.5-0.85,1.14-0.85,1.93
			c0,0.49,0.12,0.92,0.35,1.27c0.23,0.35,0.54,0.61,0.94,0.77s1.23,0.3,2.5,0.42c1.27,0.12,2.13,0.29,2.58,0.49s0.81,0.53,1.08,0.98
			c0.27,0.45,0.4,0.99,0.4,1.61c0,1.24-0.52,2.31-1.56,3.21s-2.42,1.35-4.16,1.35c-0.59,0-1.19-0.06-1.79-0.18
			c-0.6-0.12-1.21-0.3-1.82-0.53c0.11-0.74,0.16-1.69,0.16-2.86h0.63v0.46c0,0.6,0.03,0.97,0.09,1.11c0.06,0.14,0.21,0.29,0.44,0.45
			c0.34,0.24,0.75,0.43,1.21,0.55c0.47,0.13,0.98,0.19,1.52,0.19c1.17,0,2.07-0.27,2.71-0.83c0.64-0.55,0.96-1.25,0.96-2.1
			c0-0.49-0.11-0.91-0.32-1.26c-0.22-0.34-0.52-0.6-0.91-0.77s-1.11-0.29-2.16-0.38c-1.4-0.11-2.35-0.28-2.85-0.5
			s-0.89-0.57-1.18-1.05c-0.28-0.48-0.43-1.07-0.43-1.79c0-1.21,0.44-2.19,1.31-2.96c0.87-0.77,2.08-1.15,3.62-1.15
			c0.62,0,1.24,0.07,1.86,0.2C340.38,133.62,341.01,133.82,341.63,134.09z"/>
		<path class="st0" d="M356.9,140.14c0.38-0.57,0.97-1.56,1.79-2.97l2.12-3.7h1.44v0.23c-0.75,0.85-1.68,2.13-2.77,3.84
			s-1.75,2.85-1.97,3.44c-0.07,0.2-0.11,0.73-0.11,1.56c0,1.12,0.03,2,0.08,2.66c0.04,0.35,0.1,0.56,0.19,0.63
			c0.09,0.07,0.41,0.13,0.95,0.18l0.71,0.07v0.58c-1.08-0.04-1.92-0.06-2.53-0.06l-2.99,0.06v-0.58h0.79c0.53,0,0.84-0.11,0.95-0.32
			c0.11-0.22,0.16-1.19,0.16-2.93c0-0.51-0.02-1.06-0.05-1.66c-0.8-1.46-1.53-2.73-2.21-3.8c-0.67-1.07-1.24-1.85-1.71-2.34
			c-0.25-0.27-0.47-0.45-0.66-0.54c-0.19-0.09-0.51-0.13-0.95-0.13v-0.58c0.25-0.05,0.75-0.15,1.49-0.3l0.73-0.15
			c0.28,0.1,0.51,0.24,0.69,0.4c0.31,0.29,0.78,0.96,1.42,1.99C354.96,136.53,355.77,138,356.9,140.14z"/>
		<path class="st0" d="M378.9,134.09c-0.17,0.64-0.27,1.5-0.28,2.56h-0.64v-0.74c0-0.48-0.06-0.81-0.19-0.98
			c-0.13-0.17-0.47-0.36-1.02-0.55c-0.55-0.19-1.12-0.29-1.73-0.29c-0.99,0-1.77,0.25-2.33,0.75c-0.57,0.5-0.85,1.14-0.85,1.93
			c0,0.49,0.12,0.92,0.35,1.27c0.23,0.35,0.54,0.61,0.94,0.77s1.23,0.3,2.5,0.42c1.27,0.12,2.13,0.29,2.58,0.49s0.81,0.53,1.08,0.98
			c0.27,0.45,0.4,0.99,0.4,1.61c0,1.24-0.52,2.31-1.56,3.21s-2.42,1.35-4.16,1.35c-0.59,0-1.19-0.06-1.79-0.18
			c-0.6-0.12-1.21-0.3-1.82-0.53c0.11-0.74,0.16-1.69,0.16-2.86h0.63v0.46c0,0.6,0.03,0.97,0.09,1.11c0.06,0.14,0.21,0.29,0.44,0.45
			c0.34,0.24,0.75,0.43,1.21,0.55c0.47,0.13,0.98,0.19,1.52,0.19c1.17,0,2.07-0.27,2.71-0.83c0.64-0.55,0.96-1.25,0.96-2.1
			c0-0.49-0.11-0.91-0.32-1.26c-0.22-0.34-0.52-0.6-0.91-0.77s-1.11-0.29-2.16-0.38c-1.4-0.11-2.35-0.28-2.85-0.5
			s-0.89-0.57-1.18-1.05c-0.28-0.48-0.43-1.07-0.43-1.79c0-1.21,0.44-2.19,1.31-2.96c0.87-0.77,2.08-1.15,3.62-1.15
			c0.62,0,1.24,0.07,1.86,0.2C377.65,133.62,378.28,133.82,378.9,134.09z"/>
		<path class="st0" d="M394.08,134.31c-0.07,0.93-0.1,1.9-0.1,2.93v5.29c0,1.97,0.05,3.05,0.15,3.25c0.1,0.2,0.45,0.3,1.06,0.3h0.7
			v0.58c-1.09-0.04-2.02-0.06-2.78-0.06c-0.77,0-1.69,0.02-2.76,0.06v-0.58h0.78c0.41,0,0.67-0.05,0.8-0.16
			c0.12-0.11,0.2-0.32,0.23-0.64c0.06-0.72,0.09-1.66,0.09-2.8v-5.3c0-1.04-0.02-2-0.06-2.88h-0.94c-1.52,0-2.36,0.04-2.52,0.11
			c-0.15,0.07-0.26,0.35-0.31,0.83l-0.13,1.24h-0.58l0.02-1.1c0-0.45-0.04-1.09-0.11-1.92c3.34,0.04,5.3,0.06,5.89,0.06l5.13-0.06
			c-0.12,1.04-0.19,2.05-0.2,3.02h-0.58l-0.09-1.22c-0.04-0.42-0.09-0.67-0.16-0.75c-0.07-0.08-0.22-0.13-0.45-0.14
			c-0.68-0.05-1.45-0.07-2.32-0.07H394.08z"/>
		<path class="st0" d="M410.45,140.36v2.28l0.01,1.31c0,0.82,0.01,1.42,0.03,1.79c0.9,0.07,1.87,0.1,2.91,0.1
			c0.69,0,1.28-0.03,1.75-0.09c0.3-0.04,0.63-0.12,0.97-0.24c0.15-0.54,0.31-1.22,0.47-2.04h0.61c-0.17,1.36-0.25,2.26-0.25,2.72
			l0.02,0.42c-0.71,0.06-1.41,0.09-2.1,0.09l-1.46-0.03c-1.61-0.04-2.79-0.06-3.54-0.06c-0.72,0-1.69,0.02-2.88,0.06v-0.58h0.29
			c0.54,0,0.88-0.05,1.02-0.16c0.14-0.1,0.23-0.35,0.28-0.74c0.05-0.39,0.07-1.25,0.07-2.58v-5.09c0-0.83-0.02-1.52-0.06-2.05
			s-0.08-0.85-0.13-0.95c-0.05-0.1-0.11-0.18-0.2-0.24c-0.09-0.06-0.35-0.1-0.8-0.15l-0.71-0.07v-0.58h1l0.98,0.03
			c0.55,0.02,0.97,0.03,1.25,0.03l3.56-0.05l1.69-0.01c0.58-0.01,1.16,0.02,1.74,0.06c-0.24,0.73-0.37,1.69-0.39,2.87h-0.63
			c0-0.68-0.03-1.25-0.1-1.7c-0.73-0.27-1.63-0.41-2.69-0.41c-0.85,0-1.73,0.04-2.66,0.11c0.01,0.58,0,1.16-0.02,1.74l-0.02,1.43
			v1.88c0.61,0.04,1.15,0.06,1.62,0.06c1.47,0,2.31-0.05,2.5-0.15c0.2-0.1,0.29-0.42,0.29-0.95v-0.6h0.63
			c-0.04,0.93-0.06,1.68-0.06,2.24c0,0.59,0.02,1.28,0.06,2.08h-0.63v-0.54c0-0.59-0.12-0.96-0.35-1.09
			c-0.23-0.13-1.05-0.2-2.45-0.2C411.54,140.3,411,140.32,410.45,140.36z"/>
		<path class="st0" d="M439.2,135.47l-2.76,5.74c-1.03,2.15-1.88,4.04-2.54,5.64h-0.37c-0.23-0.55-0.88-1.97-1.97-4.24l-3.32-6.88
			v7.17c0,1.67,0.07,2.62,0.2,2.84c0.13,0.23,0.55,0.34,1.24,0.34h0.35v0.58c-0.86-0.04-1.56-0.06-2.1-0.06
			c-0.39,0-1.17,0.02-2.33,0.06v-0.58h0.6c0.41,0,0.68-0.06,0.82-0.18c0.14-0.12,0.22-0.33,0.25-0.64c0.08-0.87,0.12-1.8,0.12-2.8
			v-5.25c0-1.27-0.03-2.11-0.08-2.51c-0.02-0.21-0.12-0.37-0.27-0.48c-0.16-0.11-0.47-0.17-0.94-0.17h-0.49v-0.58
			c1.08,0.04,1.75,0.06,2.03,0.06c0.35,0,0.85-0.02,1.5-0.06c0.75,1.66,1.61,3.5,2.59,5.5l2.44,5.02l2.25-4.65
			c0.79-1.63,1.7-3.59,2.71-5.87c0.77,0.04,1.32,0.06,1.63,0.06c0.37,0,1.02-0.02,1.98-0.06v0.58h-0.61c-0.55,0-0.88,0.09-1,0.28
			s-0.18,0.87-0.18,2.04v6.78c0,1.51,0.06,2.37,0.19,2.6c0.13,0.22,0.48,0.33,1.07,0.33h0.53v0.58c-0.86-0.04-1.68-0.06-2.47-0.06
			c-0.87,0-1.77,0.02-2.72,0.06v-0.58h0.61c0.49,0,0.78-0.11,0.89-0.32c0.1-0.21,0.15-1.13,0.15-2.75V135.47z"/>
	</g>
</g>
</svg>
